HIERARCHY
ROOT SpineBase
{
  OFFSET 0.000000 0.000000 0.000000
  CHANNELS 6 Xposition Yposition Zposition Zrotation Xrotation Yrotation
  JOINT SpineMid
  {
    OFFSET 0.000000 29.817772 0.000000
    CHANNELS 3 Zrotation Xrotation Yrotation
    JOINT SpineShoulder
    {
      OFFSET 0.119073 22.198064 -0.701553
      CHANNELS 3 Zrotation Xrotation Yrotation
      JOINT Neck
      {
        OFFSET 0.084035 7.353838 -0.527238
        CHANNELS 3 Zrotation Xrotation Yrotation
        JOINT Head
        {
          OFFSET -2.919551 13.337824 -1.845931
          CHANNELS 3 Zrotation Xrotation Yrotation
          End Site
          {
            OFFSET 0 0 0
          }
        }
      }
      JOINT ShoulderLeft
      {
        OFFSET -16.731943 -4.513616 0.813167
        CHANNELS 3 Zrotation Xrotation Yrotation
        JOINT ElbowLeft
        {
          OFFSET -2.897505 -27.303793 4.088002
          CHANNELS 3 Zrotation Xrotation Yrotation
          JOINT WristLeft
          {
            OFFSET -0.123120 -20.384254 -4.947066
            CHANNELS 3 Zrotation Xrotation Yrotation
            JOINT HandLeft
            {
              OFFSET 0.281631 -2.278091 -1.066145
              CHANNELS 3 Zrotation Xrotation Yrotation
              JOINT HandTipLeft
              {
                OFFSET 0.188160 -5.614750 -1.181910
                CHANNELS 3 Zrotation Xrotation Yrotation
                End Site
                {
                  OFFSET 0 0 0
                }
              }
              JOINT ThumbLeft
              {
                OFFSET 2.149324 -0.406205 -2.533627
                CHANNELS 3 Zrotation Xrotation Yrotation
                End Site
                {
                  OFFSET 0 0 0
                }
              }
            }
          }
        }
      }
      JOINT ShoulderRight
      {
        OFFSET 15.397160 -3.238813 -5.177009
        CHANNELS 3 Zrotation Xrotation Yrotation
        JOINT ElbowRight
        {
          OFFSET 5.167619 -25.045528 0.558857
          CHANNELS 3 Zrotation Xrotation Yrotation
          JOINT WristRight
          {
            OFFSET -5.292371 -19.752880 -1.965344
            CHANNELS 3 Zrotation Xrotation Yrotation
            JOINT HandRight
            {
              OFFSET -1.333499 -6.044872 -1.184122
              CHANNELS 3 Zrotation Xrotation Yrotation
              JOINT HandTipRight
              {
                OFFSET -2.686380 -6.632817 -0.860675
                CHANNELS 3 Zrotation Xrotation Yrotation
                End Site
                {
                  OFFSET 0 0 0
                }
              }
              JOINT ThumbRight
              {
                OFFSET -3.849229 1.769906 -3.678389
                CHANNELS 3 Zrotation Xrotation Yrotation
                End Site
                {
                  OFFSET 0 0 0
                }
              }
            }
          }
        }
      }
    }
  }
  JOINT HipLeft
  {
    OFFSET -6.588295 0.525249 -2.388088
    CHANNELS 3 Zrotation Xrotation Yrotation
    JOINT KneeLeft
    {
      OFFSET -2.515125 -26.798042 -0.022927
      CHANNELS 3 Zrotation Xrotation Yrotation
      JOINT AnkleLeft
      {
        OFFSET 0.615548 -35.498859 9.136097
        CHANNELS 3 Zrotation Xrotation Yrotation
        JOINT FootLeft
        {
          OFFSET -0.768572 -4.648108 -10.748628
          CHANNELS 3 Zrotation Xrotation Yrotation
          End Site
          {
            OFFSET 0 0 0
          }
        }
      }
    }
  }
  JOINT HipRight
  {
    OFFSET 7.533148 1.019107 -3.999134
    CHANNELS 3 Zrotation Xrotation Yrotation
    JOINT KneeRight
    {
      OFFSET 5.190862 -27.028302 2.873626
      CHANNELS 3 Zrotation Xrotation Yrotation
      JOINT AnkleRight
      {
        OFFSET -1.269248 -35.872785 13.441111
        CHANNELS 3 Zrotation Xrotation Yrotation
        JOINT FootRight
        {
          OFFSET -0.653391 -4.899087 -9.905267
          CHANNELS 3 Zrotation Xrotation Yrotation
          End Site
          {
            OFFSET 0 0 0
          }
        }
      }
    }
  }
}
MOTION
Frames: 8
Frame Time: 0.033333
-57.188296 72.292295 381.083021 -0.000000 0.000000 6.508452 0.000000 0.000000 -6.508452 -0.000000 0.000000 0.000000 -0.000000 0.000000 0.000000 0.000000 0.000000 0.000000 -0.000000 0.000000 0.000000 -0.000000 0.000000 0.000000 -0.000000 0.000000 0.000000 -0.000000 0.000000 0.000000 0.000000 0.000000 0.000000 0.000000 0.000000 0.000000 -0.000000 0.000000 0.000000 -0.000000 0.000000 0.000000 -0.000000 0.000000 0.000000 -0.000000 0.000000 0.000000 0.000000 0.000000 0.000000 0.000000 0.000000 0.000000 0.000000 0.000000 -6.508452 -0.000000 0.000000 0.000000 -0.000000 0.000000 0.000000 0.000000 0.000000 0.000000 0.000000 0.000000 -6.508452 -0.000000 0.000000 0.000000 -0.000000 0.000000 0.000000 0.000000 0.000000 0.000000
-57.192568 72.300226 381.079326 -0.014835 -0.008376 6.493570 0.015687 0.006645 -6.493572 -0.000000 0.000000 0.000000 -0.000000 0.000000 0.000000 0.000000 0.000000 0.000000 -0.000000 0.000000 0.000000 -0.244762 -0.964146 0.063294 0.962753 5.748706 0.145631 -1.569437 -2.686655 -0.092541 0.000000 0.000000 0.000000 0.000000 0.000000 0.000000 -0.000000 0.000000 0.000000 -0.000000 0.000000 0.000000 -0.000000 0.000000 0.000000 3.295595 -0.931971 -0.023777 0.000000 0.000000 0.000000 0.000000 0.000000 0.000000 0.015687 0.006645 -6.493572 -0.000000 0.000000 0.000000 1.140683 -8.333998 -1.414963 0.000000 0.000000 0.000000 0.015687 0.006645 -6.493572 -0.000000 0.000000 0.000000 2.452274 -15.466441 -3.528538 0.000000 0.000000 0.000000
-57.196879 72.308329 381.075195 -0.030123 -0.016554 6.489433 0.031801 0.013043 -6.489441 -0.000000 0.000000 0.000000 -0.000000 0.000000 0.000000 0.000000 0.000000 0.000000 -0.000000 0.000000 0.000000 -0.441823 -1.748744 0.111457 1.727962 10.396710 0.208548 -2.947182 -4.667090 -0.279954 0.000000 0.000000 0.000000 0.000000 0.000000 0.000000 -0.000000 0.000000 0.000000 1.461325 0.222944 -0.208653 -1.882813 -1.176178 0.490132 6.604997 -1.072610 -0.288278 0.000000 0.000000 0.000000 0.000000 0.000000 0.000000 0.031801 0.013043 -6.489441 -0.000000 0.000000 0.000000 2.086493 -16.191268 -2.743945 0.000000 0.000000 0.000000 0.031801 0.013043 -6.489441 -0.000000 0.000000 0.000000 3.960749 -29.237396 -6.385113 0.000000 0.000000 0.000000
-57.201229 72.316603 381.070629 -0.045864 -0.024531 6.496046 0.048345 0.019185 -6.496064 -0.000000 0.000000 0.000000 -0.000000 0.000000 0.000000 0.000000 0.000000 0.000000 -0.000000 0.000000 0.000000 -0.591305 -2.352190 0.146299 2.329094 14.151132 0.234172 -4.151115 -6.175642 -0.519722 0.000000 0.000000 0.000000 0.000000 0.000000 0.000000 -0.000000 0.000000 0.000000 2.356069 0.387293 -0.347985 -2.840790 -2.001822 0.772033 9.061419 -1.615022 -0.293804 0.000000 0.000000 0.000000 0.000000 0.000000 0.000000 0.048345 0.019185 -6.496064 -0.000000 0.000000 0.000000 2.821802 -23.045819 -3.980167 0.000000 0.000000 0.000000 0.048345 0.019185 -6.496064 -0.000000 0.000000 0.000000 4.640080 -38.687106 -8.382572 0.000000 0.000000 0.000000
-57.205618 72.325048 381.065627 -0.062060 -0.032310 6.513410 0.065325 0.025062 -6.513442 -0.000000 0.000000 0.000000 -0.000000 0.000000 0.000000 0.000000 0.000000 0.000000 -0.000000 0.000000 0.000000 -0.693312 -2.773518 0.169221 2.784146 17.169362 0.252711 -5.193015 -7.389305 -0.787542 0.000000 0.000000 0.000000 0.000000 0.000000 0.000000 -0.000000 0.000000 0.000000 3.355632 0.584236 -0.511368 -3.802729 -2.987596 1.079465 10.852047 -2.130720 -0.210369 0.000000 0.000000 0.000000 0.000000 0.000000 0.000000 0.065325 0.025062 -6.513442 -0.000000 0.000000 0.000000 3.357255 -28.568970 -5.130837 0.000000 0.000000 0.000000 0.065325 0.025062 -6.513442 -0.000000 0.000000 0.000000 4.849250 -43.300663 -9.456712 0.000000 0.000000 0.000000
-57.210045 72.333664 381.060190 -0.078711 -0.039890 6.541519 0.082743 0.030664 -6.541568 -0.000000 0.000000 0.000000 -0.000000 0.000000 0.000000 0.000000 0.000000 0.000000 -0.000000 0.000000 0.000000 -0.747921 -3.012198 0.181198 3.101393 19.568432 0.285824 -6.080625 -8.437462 -1.070169 0.000000 0.000000 0.000000 0.000000 0.000000 0.000000 -0.000000 0.000000 0.000000 4.456217 0.811538 -0.699405 -4.761418 -4.135575 1.414376 11.924769 -2.594842 -0.041182 0.000000 0.000000 0.000000 0.000000 0.000000 0.000000 0.082743 0.030664 -6.541568 -0.000000 0.000000 0.000000 3.721949 -32.625661 -6.207257 0.000000 0.000000 0.000000 0.082743 0.030664 -6.541568 -0.000000 0.000000 0.000000 4.862152 -43.342949 -9.564519 0.000000 0.000000 0.000000
-57.214256 72.344036 381.054259 -0.098299 -0.045209 6.589990 0.102838 0.033629 -6.590059 -0.000000 0.000000 0.000000 -0.000000 0.000000 0.000000 0.000000 0.000000 0.000000 -0.000000 0.000000 0.000000 -0.775496 -3.120631 0.187167 3.358746 22.009087 0.358379 -7.859716 -11.481288 -1.634300 0.000000 0.000000 0.000000 0.000000 0.000000 0.000000 -0.000000 0.000000 0.000000 6.247649 1.261185 -1.043072 -5.552046 -6.125410 1.888536 10.603737 -3.240883 0.718963 0.000000 0.000000 0.000000 0.000000 0.000000 0.000000 0.102838 0.033629 -6.590059 -0.000000 0.000000 0.000000 3.790778 -32.291627 -6.717106 0.000000 0.000000 0.000000 0.102838 0.033629 -6.590059 -0.000000 0.000000 0.000000 3.831237 -26.945821 -6.194532 0.000000 0.000000 0.000000
-57.221226 72.351556 381.048609 -0.117360 -0.047622 6.644560 0.122082 0.033723 -6.644645 -0.000000 0.000000 0.000000 -0.000000 0.000000 0.000000 0.000000 0.000000 0.000000 -0.000000 0.000000 0.000000 -0.732188 -3.042890 0.177772 3.906161 24.530446 0.238090 -8.696318 -11.272007 -1.893428 0.000000 0.000000 0.000000 0.000000 0.000000 0.000000 -0.000000 0.000000 0.000000 7.821054 1.564528 -1.328001 -7.228407 -7.901291 2.444452 11.696792 -3.205189 0.618861 0.000000 0.000000 0.000000 0.000000 0.000000 0.000000 0.122082 0.033723 -6.644645 -0.000000 0.000000 0.000000 4.155643 -37.545793 -8.449031 0.000000 0.000000 0.000000 0.122082 0.033723 -6.644645 -0.000000 0.000000 0.000000 3.269548 -19.821223 -5.239034 0.000000 0.000000 0.000000
